<svg width="68" height="66" viewBox="0 0 68 66" fill="none" xmlns="http://www.w3.org/2000/svg">
<path d="M24.9333 30.8C21.9275 30.8 19.0449 29.6411 16.9195 27.5782C14.794 25.5153 13.6 22.7174 13.6 19.8V11C13.6 10.4165 13.8388 9.85697 14.2639 9.44439C14.689 9.03181 15.2655 8.80002 15.8667 8.80002H18.1333C18.7345 8.80002 19.311 8.56824 19.7361 8.15566C20.1612 7.74308 20.4 7.1835 20.4 6.60002C20.4 6.01655 20.1612 5.45697 19.7361 5.04439C19.311 4.63181 18.7345 4.40002 18.1333 4.40002H15.8667C14.0632 4.40002 12.3336 5.09538 11.0583 6.33312C9.78309 7.57086 9.06667 9.2496 9.06667 11V19.8C9.06958 22.2854 9.69402 24.733 10.8863 26.9326C12.0787 29.1322 13.8033 31.018 15.912 32.428C17.938 34.1617 19.5811 36.2758 20.742 38.6428C21.9029 41.0099 22.5577 43.5806 22.6667 46.2C22.6667 50.2844 24.3383 54.2014 27.3139 57.0895C30.2895 59.9775 34.3252 61.6 38.5333 61.6C42.7414 61.6 46.7772 59.9775 49.7528 57.0895C52.7283 54.2014 54.4 50.2844 54.4 46.2V43.692C56.5367 43.1566 58.3988 41.8831 59.6374 40.1104C60.8759 38.3377 61.4058 36.1874 61.1277 34.0626C60.8497 31.9378 59.7827 29.9844 58.1269 28.5685C56.4711 27.1526 54.3401 26.3715 52.1333 26.3715C49.9266 26.3715 47.7956 27.1526 46.1397 28.5685C44.4839 29.9844 43.417 31.9378 43.1389 34.0626C42.8609 36.1874 43.3908 38.3377 44.6293 40.1104C45.8678 41.8831 47.73 43.1566 49.8667 43.692V46.2C49.8667 49.1174 48.6726 51.9153 46.5472 53.9782C44.4218 56.0411 41.5391 57.2 38.5333 57.2C35.5275 57.2 32.6449 56.0411 30.5195 53.9782C28.394 51.9153 27.2 49.1174 27.2 46.2C27.3147 43.5774 27.9765 41.0046 29.1454 38.6374C30.3142 36.2702 31.9657 34.1578 34 32.428C36.1004 31.0131 37.8161 29.1251 39.0004 26.9259C40.1847 24.7266 40.8022 22.2815 40.8 19.8V11C40.8 9.2496 40.0836 7.57086 38.8083 6.33312C37.5331 5.09538 35.8035 4.40002 34 4.40002H31.7333C31.1322 4.40002 30.5556 4.63181 30.1306 5.04439C29.7055 5.45697 29.4667 6.01655 29.4667 6.60002C29.4667 7.1835 29.7055 7.74308 30.1306 8.15566C30.5556 8.56824 31.1322 8.80002 31.7333 8.80002H34C34.6012 8.80002 35.1777 9.03181 35.6028 9.44439C36.0279 9.85697 36.2667 10.4165 36.2667 11V19.8C36.2667 21.2446 35.9735 22.675 35.404 24.0095C34.8344 25.3441 33.9996 26.5568 32.9472 27.5782C31.8948 28.5996 30.6454 29.4099 29.2704 29.9627C27.8954 30.5155 26.4216 30.8 24.9333 30.8ZM52.1333 39.6C50.931 39.6 49.7779 39.1365 48.9278 38.3113C48.0776 37.4861 47.6 36.367 47.6 35.2C47.6 34.0331 48.0776 32.9139 48.9278 32.0888C49.7779 31.2636 50.931 30.8 52.1333 30.8C53.3356 30.8 54.4887 31.2636 55.3389 32.0888C56.189 32.9139 56.6667 34.0331 56.6667 35.2C56.6667 36.367 56.189 37.4861 55.3389 38.3113C54.4887 39.1365 53.3356 39.6 52.1333 39.6Z" fill="#F8F8F8"/>
</svg>
