<svg width="63" height="62" viewBox="0 0 63 62" fill="none" xmlns="http://www.w3.org/2000/svg">
<path d="M31.5 56.8333C41.6299 56.8333 49.875 48.719 49.875 38.75C49.875 28.7809 41.6299 20.6666 31.5 20.6666C21.3675 20.6666 13.125 28.7809 13.125 38.75C13.125 48.719 21.3675 56.8333 31.5 56.8333ZM31.5 25.8333C38.7371 25.8333 44.625 31.6277 44.625 38.75C44.625 45.8722 38.7371 51.6666 31.5 51.6666C24.2629 51.6666 18.375 45.8722 18.375 38.75C18.375 31.6277 24.2629 25.8333 31.5 25.8333ZM28.875 5.16663H18.375V19.4215C21.5163 17.3528 25.118 16.0599 28.875 15.6524V5.16663ZM44.625 5.16663H34.125V15.6524C37.882 16.0599 41.4837 17.3528 44.625 19.4215V5.16663Z" fill="#F8F8F8"/>
<path d="M26.2999 40.845L25.0714 47.8872L31.5 44.5625L37.9286 47.8872L36.7001 40.845L41.9029 35.854L34.7156 34.8259L31.5 28.4166L28.2844 34.8259L21.0971 35.854L26.2999 40.845Z" fill="#F8F8F8"/>
</svg>
