<svg width="52" height="50" viewBox="0 0 52 50" fill="none" xmlns="http://www.w3.org/2000/svg">
<path d="M37.375 46.875C35.1252 46.875 32.926 46.2335 31.0554 45.0317C29.1848 43.8299 27.7268 42.1217 26.8659 40.1231C26.0049 38.1245 25.7797 35.9254 26.2186 33.8037C26.6575 31.682 27.7408 29.7332 29.3317 28.2035C30.9225 26.6739 32.9493 25.6322 35.1559 25.2102C37.3624 24.7881 39.6495 25.0047 41.728 25.8326C43.8065 26.6604 45.5831 28.0623 46.833 29.861C48.0829 31.6596 48.75 33.7743 48.75 35.9375C48.7466 38.8373 47.547 41.6174 45.4145 43.6678C43.2821 45.7183 40.3908 46.8717 37.375 46.875ZM37.375 28.125C35.768 28.125 34.1971 28.5832 32.861 29.4416C31.5248 30.3001 30.4834 31.5202 29.8685 32.9478C29.2535 34.3753 29.0926 35.9462 29.4061 37.4617C29.7196 38.9771 30.4935 40.3692 31.6298 41.4618C32.7661 42.5544 34.2138 43.2984 35.7899 43.5999C37.366 43.9013 38.9997 43.7466 40.4843 43.1553C41.969 42.564 43.2379 41.5627 44.1307 40.2779C45.0235 38.9931 45.5 37.4827 45.5 35.9375C45.4979 33.8661 44.6411 31.8802 43.1179 30.4155C41.5946 28.9508 39.5292 28.1271 37.375 28.125Z" fill="#F8F8F8"/>
<path d="M42.25 38.4156L39 35.2906V31.25H35.75V36.5844L39.9523 40.625L42.25 38.4156ZM13 25H22.75V28.125H13V25ZM13 15.625H32.5V18.75H13V15.625Z" fill="#F8F8F8"/>
<path d="M42.25 6.25C42.2492 5.42145 41.9065 4.62708 41.2972 4.04121C40.6879 3.45533 39.8617 3.12583 39 3.125H6.50001C5.63832 3.12583 4.81217 3.45533 4.20286 4.04121C3.59356 4.62708 3.25087 5.42145 3.25001 6.25V26.5625C3.24639 29.6787 4.12543 32.737 5.79278 35.4091C7.46012 38.0812 9.85281 40.2662 12.714 41.7297L21.125 46.0422V42.5L14.2448 38.9719C11.9037 37.7745 9.94591 35.9868 8.58149 33.8006C7.21706 31.6144 6.49749 29.1122 6.50001 26.5625V6.25H39V20.3125H42.25V6.25Z" fill="#F8F8F8"/>
</svg>
