<svg width="49" height="50" viewBox="0 0 49 50" fill="none" xmlns="http://www.w3.org/2000/svg">
<path d="M25.725 38.3001C26.0373 38.6176 26.4601 38.7959 26.901 38.7959C27.3418 38.7959 27.7647 38.6176 28.077 38.3001L30.429 35.9001L37.5503 43.1001L36.3417 44.3334C35.1089 45.676 33.4338 46.5069 31.6377 46.6667H26.9173C25.1096 46.5149 23.4216 45.6834 22.1807 44.3334L5.61866 27.4334C4.27157 26.1778 3.43274 24.4541 3.26666 22.6001V17.7667C3.43274 15.9128 4.27157 14.189 5.61866 12.9334L6.79466 11.7334L13.916 18.9667L11.5313 21.4001C11.2201 21.7187 11.0454 22.1502 11.0454 22.6001C11.0454 23.0499 11.2201 23.4814 11.5313 23.8001L25.725 38.3001ZM41.1437 39.5667C41.4547 39.2652 41.7046 38.904 41.8788 38.5039C42.0531 38.1038 42.1484 37.6726 42.1593 37.2349C42.1703 36.7972 42.0966 36.3616 41.9425 35.953C41.7884 35.5444 41.5569 35.1707 41.2613 34.8534L41.1437 34.7334L38.7917 32.3334C38.4961 32.016 38.1422 31.7611 37.7501 31.5832C37.358 31.4054 36.9354 31.3082 36.5065 31.297C36.0775 31.2859 35.6507 31.3611 35.2502 31.5183C34.8497 31.6755 34.4836 31.9117 34.1726 32.2134L34.055 32.3334L41.1437 39.5667ZM17.3623 15.4001C17.6734 15.0985 17.9232 14.7374 18.0975 14.3373C18.2718 13.9372 18.3671 13.506 18.378 13.0683C18.3889 12.6306 18.3152 12.195 18.1611 11.7863C18.007 11.3777 17.7756 11.0041 17.4799 10.6867L15.0103 8.16675C14.7148 7.84932 14.3609 7.59441 13.9688 7.41658C13.5767 7.23875 13.1541 7.14149 12.7252 7.13035C12.2962 7.1192 11.8693 7.1944 11.4689 7.35164C11.0684 7.50887 10.7022 7.74508 10.3913 8.04675L10.2573 8.16675L17.3623 15.4001ZM32.6667 6.66675V13.3334H26.1333V16.6667H32.6667V23.3334H35.9333V16.6667H42.4667V13.3334H35.9333V6.66675H32.6667Z" fill="white"/>
</svg>
