<svg width="48" height="44" viewBox="0 0 48 44" fill="none" xmlns="http://www.w3.org/2000/svg">
<path d="M46.275 25.7898L35.35 9.69375C33.4917 6.96094 30.5333 5.5 27.5333 5.5C25.65 5.5 23.7417 6.07578 22.075 7.27891C20.4333 8.46484 19.2667 10.0977 18.6167 11.9023C18.375 6.80625 14.3333 2.75 9.33333 2.75C4.175 2.75 0 7.05547 0 12.375V31.625C0 36.9445 4.175 41.25 9.33333 41.25C14.4917 41.25 18.6667 36.9445 18.6667 31.625V18.8117C18.9417 19.5508 19.275 20.2812 19.7333 20.9602L30.6667 37.0562C32.5167 39.7891 35.475 41.25 38.4833 41.25C40.375 41.25 42.275 40.6742 43.9417 39.4711C48.25 36.3602 49.2917 30.2328 46.275 25.7898ZM13.3333 22H5.33333V12.375C5.33333 10.0977 7.125 8.25 9.33333 8.25C11.5417 8.25 13.3333 10.0977 13.3333 12.375V22ZM29.5667 25.8586L24.1 17.8062C23.4583 16.8609 23.2083 15.7094 23.4083 14.575C23.6 13.4406 24.2167 12.4437 25.1333 11.782C25.8417 11.2664 26.675 11 27.5333 11C28.9083 11 30.1917 11.6875 30.975 12.8477L36.4417 20.9L29.5667 25.8586Z" fill="white"/>
</svg>
