<svg width="50" height="50" viewBox="0 0 50 50" fill="none" xmlns="http://www.w3.org/2000/svg">
<path fill-rule="evenodd" clip-rule="evenodd" d="M35.4167 4.16675C29.6635 4.16675 25 8.83029 25 14.5834V23.9584C25 24.2347 25.1097 24.4996 25.3051 24.695C25.5004 24.8903 25.7654 25.0001 26.0417 25.0001H35.4167C41.1698 25.0001 45.8333 20.3365 45.8333 14.5834C45.8333 8.83029 41.1698 4.16675 35.4167 4.16675ZM27.0833 14.5834C27.0833 12.9352 27.5721 11.3241 28.4878 9.95366C29.4034 8.58325 30.7049 7.51515 32.2276 6.88442C33.7504 6.25369 35.4259 6.08866 37.0424 6.4102C38.6589 6.73175 40.1438 7.52542 41.3092 8.69086C42.4747 9.8563 43.2683 11.3412 43.5899 12.9577C43.9114 14.5742 43.7464 16.2497 43.1157 17.7724C42.4849 19.2952 41.4168 20.5966 40.0464 21.5123C38.676 22.428 37.0648 22.9167 35.4167 22.9167H27.0833V14.5834ZM7.29166 12.2688C7.29166 11.8251 7.65833 11.4584 8.10208 11.4584H14.5833C15.026 11.4584 15.3937 11.8251 15.3937 12.2688C15.3937 14.6917 15.7812 17.0209 16.4979 19.198C16.5443 19.3424 16.5495 19.4968 16.5131 19.644C16.4767 19.7911 16.4 19.9253 16.2917 20.0313L11.6823 24.6407L12.026 25.3147C14.7927 30.7542 19.249 35.1897 24.6823 37.973L25.3573 38.3188L29.9677 33.7084C30.0722 33.6038 30.2037 33.5303 30.3475 33.4959C30.4913 33.4615 30.6418 33.4676 30.7823 33.5136L30.7927 33.5167C33.0319 34.2527 35.3742 34.6269 37.7312 34.6251C38.175 34.6251 38.5417 34.9917 38.5417 35.4355V41.898C38.5403 42.1125 38.4545 42.3178 38.3028 42.4695C38.1511 42.6212 37.9458 42.707 37.7312 42.7084C20.9187 42.7084 7.29166 29.0824 7.29166 12.2688ZM8.10208 9.37508C7.33503 9.37646 6.59979 9.68178 6.05741 10.2242C5.51502 10.7665 5.20971 11.5018 5.20833 12.2688C5.20833 30.2324 19.7677 44.7917 37.7312 44.7917C38.4983 44.7904 39.2335 44.4851 39.7759 43.9427C40.3183 43.4003 40.6236 42.665 40.625 41.898V35.4355C40.6236 34.6685 40.3183 33.9332 39.7759 33.3908C39.2335 32.8484 38.4983 32.5431 37.7312 32.5417C35.5983 32.5436 33.4787 32.2057 31.4521 31.5407C30.9433 31.3698 30.397 31.3443 29.8745 31.4671C29.3521 31.5898 28.8742 31.8559 28.4948 32.2355L24.9646 35.7657C20.4361 33.2878 16.7121 29.5646 14.2333 25.0365L17.7646 21.5053C18.1432 21.1293 18.4107 20.6561 18.5377 20.1378C18.6647 19.6195 18.6463 19.0763 18.4844 18.5678L18.4823 18.5605L18.4802 18.5532C17.8125 16.5254 17.4739 14.4037 17.4771 12.2688C17.4757 11.5018 17.1704 10.7665 16.628 10.2242C16.0856 9.68178 15.3504 9.37646 14.5833 9.37508H8.10208ZM30.2083 13.5417H34.375V9.37508H36.4583V13.5417H40.625V15.6251H36.4583V19.7917H34.375V15.6251H30.2083V13.5417Z" fill="white"/>
</svg>
