<svg width="57" height="51" viewBox="0 0 57 51" fill="none" xmlns="http://www.w3.org/2000/svg">
<path d="M15.626 17.1875H21.876V23.4375C21.876 23.8519 22.0406 24.2493 22.3336 24.5424C22.6266 24.8354 23.0241 25 23.4385 25H29.6885C30.1029 25 30.5003 24.8354 30.7933 24.5424C31.0864 24.2493 31.251 23.8519 31.251 23.4375V17.1875H37.501C37.9154 17.1875 38.3128 17.0229 38.6058 16.7299C38.8989 16.4368 39.0635 16.0394 39.0635 15.625V9.375C39.0635 8.9606 38.8989 8.56317 38.6058 8.27015C38.3128 7.97712 37.9154 7.8125 37.501 7.8125H31.251V1.5625C31.251 1.1481 31.0864 0.750671 30.7933 0.457646C30.5003 0.16462 30.1029 0 29.6885 0H23.4385C23.0241 0 22.6266 0.16462 22.3336 0.457646C22.0406 0.750671 21.876 1.1481 21.876 1.5625V7.8125H15.626C15.2116 7.8125 14.8141 7.97712 14.5211 8.27015C14.2281 8.56317 14.0635 8.9606 14.0635 9.375V15.625C14.0635 16.0394 14.2281 16.4368 14.5211 16.7299C14.8141 17.0229 15.2116 17.1875 15.626 17.1875ZM55.4883 32.8428C55.1847 32.4289 54.8023 32.079 54.3632 31.8133C53.924 31.5476 53.4367 31.3713 52.9292 31.2944C52.4217 31.2175 51.904 31.2417 51.4058 31.3655C50.9077 31.4892 50.4389 31.7102 50.0264 32.0156L38.3398 40.6269H26.5615C26.1471 40.6269 25.7497 40.4623 25.4567 40.1693C25.1636 39.8763 24.999 39.4788 24.999 39.0644C24.999 38.65 25.1636 38.2526 25.4567 37.9596C25.7497 37.6666 26.1471 37.5019 26.5615 37.5019H34.2022C35.7647 37.5019 37.2051 36.4404 37.4609 34.9033C37.5365 34.4545 37.5132 33.9946 37.3928 33.5556C37.2724 33.1167 37.0578 32.7093 36.7638 32.3618C36.4699 32.0143 36.1037 31.735 35.6908 31.5435C35.2779 31.352 34.8282 31.2529 34.3731 31.2529H18.748C16.1128 31.2524 13.5573 32.1574 11.5098 33.8164L6.96875 37.5019H1.5625C1.14897 37.5048 0.753173 37.6703 0.460756 37.9627C0.168338 38.2551 0.00281411 38.6509 0 39.0644V48.4394C0.00281411 48.853 0.168338 49.2488 0.460756 49.5412C0.753173 49.8336 1.14897 49.9991 1.5625 50.002H35.4492C37.6166 49.9968 39.7264 49.3037 41.4746 48.0225L54.6611 38.2988C55.4934 37.6843 56.0479 36.7647 56.203 35.7418C56.3581 34.719 56.101 33.6764 55.4883 32.8428V32.8428Z" fill="#F8F8F8"/>
</svg>
