<svg width="15" height="27" viewBox="0 0 15 27" fill="none" xmlns="http://www.w3.org/2000/svg">
<path d="M7.49683 4.18359C6.7756 4.18359 6.07056 4.45182 5.47088 4.95435C4.8712 5.45689 4.40381 6.17116 4.1278 7.00684C3.8518 7.84253 3.77958 8.76209 3.92029 9.64925C4.06099 10.5364 4.4083 11.3513 4.91829 11.9909C5.42827 12.6305 6.07804 13.0661 6.78541 13.2426C7.49278 13.419 8.22599 13.3285 8.89232 12.9823C9.55865 12.6362 10.1282 12.05 10.5289 11.2979C10.9296 10.5458 11.1434 9.66156 11.1434 8.75702C11.1434 7.54407 10.7592 6.3808 10.0754 5.52312C9.3915 4.66544 8.46397 4.18359 7.49683 4.18359V4.18359ZM7.49683 11.7341C7.02734 11.7341 6.56839 11.5595 6.17802 11.2324C5.78765 10.9053 5.48339 10.4403 5.30373 9.89631C5.12406 9.35231 5.07705 8.75371 5.16865 8.17621C5.26024 7.59871 5.48632 7.06824 5.8183 6.65188C6.15028 6.23552 6.57325 5.95198 7.03372 5.83711C7.49419 5.72223 7.97149 5.78119 8.40524 6.00652C8.83899 6.23185 9.20973 6.61344 9.47056 7.10302C9.7314 7.5926 9.87062 8.1682 9.87062 8.75702C9.86894 9.54521 9.6181 10.3004 9.17311 10.857C8.72812 11.4136 8.1253 11.7262 7.49683 11.7262V11.7341Z" fill="#2273B8"/>
<path d="M7.49682 0.416504C5.51455 0.41858 3.61348 1.40437 2.20883 3.15856C0.804177 4.91275 0.0100872 7.29279 0 9.77885C0 13.5062 1.66737 16.627 2.88927 18.9018L3.11201 19.3168C4.32771 21.5266 5.63189 23.6577 7.01952 25.702L7.50318 26.4124L7.98685 25.702C9.3743 23.6576 10.6785 21.5264 11.8944 19.3168L12.1171 18.8938C13.3326 16.619 15 13.5062 15 9.77885C14.9899 7.29141 14.1949 4.91016 12.7889 3.15575C11.3829 1.40133 9.48019 0.416472 7.49682 0.416504V0.416504ZM11.0543 17.9759L10.8252 18.3989C9.73059 20.4582 8.27959 22.7648 7.49682 23.9062C6.74586 22.7648 5.26305 20.4582 4.16843 18.3989L3.94569 17.9759C2.81926 15.8688 1.2728 12.9874 1.2728 9.74693C1.2728 8.72184 1.43379 7.70678 1.74658 6.75972C2.05937 5.81266 2.51782 4.95214 3.09578 4.22729C3.67373 3.50244 4.35986 2.92746 5.11499 2.53517C5.87012 2.14289 6.67947 1.94098 7.49682 1.94098C8.31417 1.94098 9.12351 2.14289 9.87864 2.53517C10.6338 2.92746 11.3199 3.50244 11.8979 4.22729C12.4758 4.95214 12.9343 5.81266 13.2471 6.75972C13.5598 7.70678 13.7208 8.72184 13.7208 9.74693C13.7208 13.0194 12.1807 15.9007 11.0543 17.9759V17.9759Z" fill="#2273B8"/>
</svg>
