<svg width="20" height="26" viewBox="0 0 20 26" fill="none" xmlns="http://www.w3.org/2000/svg">
<path d="M0 12.8026C0.00116354 18.9724 3.5784 24.2256 8.43699 25.1926V16.4272H5.89999V12.8026H8.43999V10.0435C8.32644 8.73605 8.68251 7.43304 9.41163 6.48782C10.1407 5.54261 11.1673 5.05316 12.213 5.15222C12.9635 5.16742 13.7122 5.25126 14.453 5.40306V8.48705H13.189C12.7538 8.41557 12.3163 8.59582 11.9998 8.97701C11.6832 9.35821 11.5218 9.8991 11.561 10.4473V12.8026H14.332L13.889 16.4284H11.561V25.1926C16.8155 24.1511 20.5001 18.1326 19.9455 11.4971C19.3909 4.86172 14.7913 -0.067708 9.47881 0.280009C4.16636 0.627726 0.000844476 6.13086 0 12.8026Z" fill="#2273B8"/>
</svg>
