<svg width="19" height="24" viewBox="0 0 19 24" fill="none" xmlns="http://www.w3.org/2000/svg">
<path d="M9 23.1367C6.54 23.1367 6.25 23.1204 5.29 23.0678C4.54137 23.0369 3.80244 22.846 3.105 22.5034C1.89831 21.9144 0.944141 20.7173 0.475 19.2037C0.212306 18.3258 0.0706179 17.3983 0.056 16.4608C0 15.2593 0 14.8655 0 11.8041C0 8.71007 0.013 8.34887 0.056 7.15114C0.0709377 6.21493 0.212621 5.28871 0.475 4.41204C0.943632 2.89642 1.89935 1.69824 3.108 1.11108C3.80665 0.78023 4.54535 0.602066 5.292 0.584327C6.247 0.516602 6.561 0.516602 9 0.516602C11.48 0.516602 11.765 0.532906 12.71 0.584327C13.4586 0.602219 14.1993 0.780365 14.9 1.11108C16.1083 1.69891 17.0638 2.89685 17.533 4.41204C17.8001 5.30149 17.9426 6.24219 17.954 7.19253C18.01 8.39402 18.01 8.78658 18.01 11.8467C18.01 14.9069 17.996 15.3082 17.954 16.4959C17.9391 17.4343 17.7971 18.3627 17.534 19.2413C17.0637 20.756 16.1081 21.9535 14.9 22.5423C14.2003 22.8711 13.4611 23.0488 12.714 23.0678C11.759 23.1367 11.446 23.1367 9 23.1367ZM8.966 2.50195C6.52 2.50195 6.266 2.517 5.311 2.57093C4.74099 2.5804 4.17648 2.71232 3.642 2.96097C2.85275 3.33974 2.22823 4.11981 1.923 5.10811C1.72321 5.78573 1.61801 6.50146 1.612 7.22388C1.559 8.43917 1.559 8.75773 1.559 11.8041C1.559 14.8141 1.568 15.1791 1.612 16.3868C1.62095 17.102 1.7261 17.8101 1.923 18.4813C2.22868 19.4689 2.8531 20.2484 3.642 20.6272C4.17612 20.8775 4.74085 21.0094 5.311 21.0172C6.279 21.0874 6.534 21.0874 8.966 21.0874C11.419 21.0874 11.673 21.0724 12.62 21.0172C13.1904 21.0085 13.7553 20.8766 14.29 20.6272C15.0745 20.2451 15.6949 19.4674 16 18.4838C16.1994 17.8056 16.3046 17.0895 16.311 16.3668H16.322C16.365 15.1678 16.365 14.848 16.365 11.784C16.365 8.7201 16.354 8.39778 16.311 7.20005C16.302 6.48575 16.1969 5.77847 16 5.10811C15.6956 4.12305 15.0751 3.34386 14.29 2.96097C13.7555 2.71107 13.1904 2.5791 12.62 2.57093C11.653 2.50195 11.4 2.50195 8.966 2.50195ZM9 17.5971C7.12999 17.5986 5.44342 16.1871 4.72686 14.0208C4.01031 11.8545 4.40491 9.36014 5.72663 7.70105C7.04836 6.04195 9.03687 5.54489 10.7648 6.4417C12.4927 7.33851 13.6196 9.45252 13.62 11.7978C13.6173 14.9973 11.5511 17.5909 9 17.5971ZM9 8.03282C7.34315 8.03282 6 9.71735 6 11.7953C6 13.8733 7.34315 15.5578 9 15.5578C10.6569 15.5578 12 13.8733 12 11.7953C11.9962 9.71935 10.6553 8.03765 9 8.03282ZM13.8 7.13861C13.2054 7.13583 12.7249 6.52981 12.726 5.78411C12.7271 5.03841 13.2094 4.43463 13.804 4.43463C14.3986 4.43463 14.8809 5.0384 14.882 5.7841C14.8823 6.14387 14.7683 6.48897 14.5653 6.74313C14.3622 6.9973 14.0869 7.1396 13.8 7.13861Z" fill="#2273B8"/>
</svg>
