<svg width="16" height="27" viewBox="0 0 16 27" fill="none" xmlns="http://www.w3.org/2000/svg">
<path d="M2.80629 1.49138L3.97329 1.05116C4.61258 0.80939 5.30017 0.867592 5.90776 1.21491C6.51534 1.56222 7.00142 2.17493 7.27528 2.93869L8.17728 5.45455C8.41275 6.11148 8.47832 6.84438 8.36479 7.55043C8.25127 8.25648 7.96435 8.90023 7.54428 9.39138L6.05029 11.1384C6.00661 11.1895 5.97895 11.2584 5.97229 11.3328C5.92829 11.8307 6.19729 12.8002 6.81729 14.1484C7.26828 15.1279 7.67728 15.8165 8.02428 16.2015C8.26628 16.4712 8.39928 16.5288 8.45628 16.5088L10.4663 15.7375C11.0152 15.5269 11.6029 15.537 12.147 15.7664C12.6911 15.9958 13.1643 16.433 13.5003 17.0167L14.7813 19.2441C15.1708 19.9215 15.3512 20.7531 15.2888 21.5846C15.2265 22.4161 14.9257 23.191 14.4423 23.7654L13.5563 24.8189C13.086 25.3774 12.5085 25.7736 11.8799 25.969C11.2513 26.1644 10.593 26.1523 9.96928 25.9338C7.21528 24.9694 4.74629 22.0547 2.53429 17.25C0.319293 12.439 -0.457706 8.29523 0.258293 4.81743C0.419468 4.03525 0.738578 3.31832 1.18487 2.73576C1.63115 2.15319 2.18957 1.72463 2.80629 1.49138V1.49138ZM3.23929 3.29362C2.86936 3.4334 2.53437 3.69029 2.26657 4.03955C1.99877 4.38882 1.8072 4.81868 1.71029 5.28774C1.10829 8.21246 1.79729 11.8859 3.83329 16.3094C5.86629 20.7265 8.05528 23.3101 10.3733 24.1228C10.7474 24.2535 11.1422 24.2605 11.5191 24.1432C11.896 24.0258 12.2423 23.7881 12.5243 23.4531L13.4113 22.3996C13.6311 22.1385 13.7679 21.7862 13.7962 21.4081C13.8245 21.03 13.7425 20.6519 13.5653 20.344L12.2853 18.1179C12.1325 17.8523 11.9173 17.6533 11.6698 17.5489C11.4223 17.4445 11.1549 17.44 10.9053 17.5359L8.89028 18.3098C7.72028 18.7462 6.65828 17.566 5.51829 15.0891C4.75029 13.421 4.39229 12.1292 4.48129 11.1246C4.52829 10.6029 4.72129 10.1213 5.02729 9.76261L6.52129 8.01555C6.71231 7.79233 6.8428 7.49969 6.89445 7.17871C6.94611 6.85773 6.91632 6.52453 6.80928 6.22586L5.90729 3.71C5.78281 3.36311 5.562 3.08481 5.28603 2.92698C5.01006 2.76915 4.69774 2.74256 4.40729 2.85215L3.23929 3.29362V3.29362Z" fill="#2273B8"/>
</svg>
