<svg width="21" height="18" viewBox="0 0 21 18" fill="none" xmlns="http://www.w3.org/2000/svg">
<path d="M10.0207 17.5983H10.0007C9.93867 17.5983 3.73566 17.5832 2.17066 17.0502C1.31008 16.7594 0.638003 15.9161 0.406653 14.8366C0.125231 12.8454 -0.0106662 10.8262 0.000652814 8.80407C-0.00661806 6.77861 0.132957 4.75651 0.417653 2.76275C0.655361 1.6823 1.32448 0.83503 2.18366 0.526569C3.70566 0.0249023 9.73767 0.0249023 9.99367 0.0249023H10.0147C10.0777 0.0249023 16.2967 0.0399523 17.8457 0.572973C18.7044 0.865205 19.3752 1.70686 19.6077 2.78407C19.8981 4.78263 20.0344 6.81162 20.0147 8.84295C20.0217 10.866 19.8818 12.8856 19.5967 14.8767C19.3623 15.9549 18.6898 16.7964 17.8297 17.0878C16.3097 17.5933 10.2767 17.5983 10.0207 17.5983ZM8.02066 5.04784L8.01566 12.5728L13.2277 8.81034L8.02066 5.04784Z" fill="#2273B8"/>
</svg>
